<?xml version="1.0" encoding="UTF-8"?>
<svg xmlns="http://www.w3.org/2000/svg" xmlns:xlink="http://www.w3.org/1999/xlink" width="76px" height="6px" viewBox="0 0 76 6" version="1.1">
    <!-- Generator: Sketch 50.2 (55047) - http://www.bohemiancoding.com/sketch -->
    
    
    <defs/>
    <g id="Desktop" stroke="none" stroke-width="1" fill="none" fill-rule="evenodd">
        <g id="Community-Landing-V2" transform="translate(-159.000000, -1692.000000)" fill="#FAAB19">
            <g id="All-Posts" transform="translate(120.000000, 1626.000000)">
                <g id="Desktop-Marker-Line" transform="translate(39.000000, 66.000000)">
                    <path d="M71.6747968,5.69387729 C70.6449814,5.69387729 69.8211414,5.63265342 69.2032522,5.51020383 L67.9674798,5.32653037 C67.7615167,5.32653037 67.5040667,5.35714231 67.1951221,5.4183671 C66.8861775,5.47959189 66.5257475,5.44897996 66.1138213,5.32653037 L65.9593498,5.32653037 C65.8563682,5.32653037 65.8048782,5.2653065 65.8048782,5.14285691 L62.4065043,4.95918345 L9.26829389,4.95918345 L8.65040772,5.14285691 L8.03252155,5.14285691 C7.62059538,5.14285691 7.15718539,5.11224497 6.64227768,5.05102018 C6.12736996,4.98979539 5.45799997,5.02040732 4.63414763,5.14285691 L2.47154604,5.32653037 C1.23576753,5.20408078 0.463417544,4.65306591 0.154472915,3.67346922 C-0.154471714,2.69387253 -1.71634874e-06,1.95918603 0.617887541,1.46938769 C1.02981371,1.10203893 1.8021637,0.857143431 2.93496067,0.734693844 C4.06775764,0.612244258 4.84010763,0.551020383 5.2520338,0.551020383 L7.1056923,0.367346922 C13.9024741,0.367346922 23.685574,0.244899173 36.4552853,0 C34.8075806,0.244899173 33.4688406,0.367346922 32.4390252,0.367346922 C33.0569144,0.489796508 33.7777744,0.551020383 34.6016268,0.551020383 C34.3956637,0.795919556 34.4986437,1.04081505 34.9105698,1.28571423 C35.322496,1.5306134 35.734416,1.5306134 36.1463422,1.28571423 L35.2195129,1.10204077 C36.2493284,0.857141594 36.9701883,0.979589343 37.3821145,1.46938769 L38.0000007,1.10204077 C39.6477054,0.122444076 41.5013453,-0.122451423 43.5609762,0.367346922 C43.9729024,0.244897336 44.5907824,0.183673461 45.4146347,0.183673461 L44.1788624,0.918367305 L46.650407,0.918367305 L45.7235778,0.551020383 L52.8292687,0.551020383 C54.4769734,0.551020383 55.7127334,0.612244258 56.5365857,0.734693844 L65.8048782,0.918367305 L67.9674798,0.918367305 C70.4390368,0.918367305 71.9837368,1.10203893 72.6016261,1.46938769 C72.8075892,1.46938769 73.0135492,1.53061156 73.2195122,1.65306115 C73.4254753,1.77551074 73.5284553,1.89795849 73.5284553,2.02040807 C73.7344184,2.02040807 73.8373984,2.14285582 73.8373984,2.38775499 L73.8373984,2.57142845 L74.7642277,3.3061223 L74.7642277,3.67346922 C74.9701908,3.67346922 75.2791307,3.79591697 75.6910569,4.04081614 L75.3821138,4.40816307 C75.1761507,4.28571348 74.9187008,4.19387767 74.6097561,4.13265287 C74.3008115,4.07142808 74.0433615,4.04081614 73.8373984,4.04081614 C73.6314353,4.16326573 73.6314353,4.28571348 73.8373984,4.40816307 C74.0433615,4.53061265 74.1463415,4.6530604 74.1463415,4.77550999 L76,5.87755075 C75.7940369,5.87755075 75.4850969,5.90816269 75.0731707,5.96938748 C74.6612446,6.03061228 74.2493246,6.00000034 73.8373984,5.87755075 L71.6747968,5.69387729 Z M23.1707327,2.20408153 L23.1707327,2.02040807 C23.3766957,2.02040807 23.3766957,2.08163195 23.1707327,2.20408153 Z M25.3333342,3.3061223 C25.3333342,3.18367271 25.2818442,3.12244884 25.1788627,3.12244884 C25.0758812,3.12244884 25.0243912,3.18367271 25.0243912,3.3061223 L25.3333342,3.3061223 Z M24.0975619,2.02040807 C24.0975619,1.89795849 23.9945819,1.83673461 23.7886188,1.83673461 C23.5826557,1.83673461 23.4796757,1.89795849 23.4796757,2.02040807 L24.0975619,2.02040807 Z M24.406505,0.918367305 L24.0975619,0.551020383 C23.8915988,0.673469969 23.6856388,0.734693844 23.4796757,0.734693844 L23.4796757,0.551020383 L22.8617896,0.551020383 C23.0677527,0.551020383 23.2737127,0.642856195 23.4796757,0.826530575 C23.6856388,1.01020495 23.9945788,1.04081689 24.406505,0.918367305 Z M26.5691066,2.75510192 L26.2601635,2.75510192 C26.4661266,2.63265233 26.5691066,2.63265233 26.5691066,2.75510192 Z M25.6422773,2.20408153 C25.8482404,2.08163195 25.9512204,1.9591842 25.9512204,1.83673461 L25.3333342,1.83673461 L25.6422773,2.20408153 Z M28.113822,2.02040807 C27.9078589,2.02040807 27.8048789,1.9591842 27.8048789,1.83673461 C28.010842,1.83673461 28.113822,1.89795849 28.113822,2.02040807 Z M26.2601635,0.734693844 L26.2601635,0.642857114 C26.2601635,0.581632321 26.3631435,0.551020383 26.5691066,0.551020383 C26.3631435,0.428570797 26.2086735,0.39795886 26.105692,0.459183653 C26.0027104,0.520408446 26.0542004,0.612244258 26.2601635,0.734693844 Z M27.1869928,0.551020383 C27.1869928,0.306121211 27.3929527,0.306121211 27.8048789,0.551020383 L27.1869928,0.551020383 Z M30.5853667,1.46938769 C30.9972928,1.22448852 30.9972928,1.10204077 30.5853667,1.10204077 L30.2764236,1.10204077 L30.5853667,1.46938769 Z M29.0406513,0.367346922 L29.6585374,0.367346922 C29.6585374,0.612246095 29.4525774,0.612246095 29.0406513,0.367346922 Z M33.0569113,1.28571423 C32.8509483,1.28571423 32.7479683,1.25510229 32.7479683,1.1938775 L32.7479683,1.10204077 L33.3658544,0.918367305 C32.5420021,0.795917719 31.8211421,0.795917719 31.2032528,0.918367305 C31.615179,0.918367305 31.718159,0.948979243 31.5121959,1.01020404 C31.3062328,1.07142883 31.3062328,1.16326464 31.5121959,1.28571423 L33.0569113,1.28571423 Z M33.0569113,1.28571423 L33.0569113,1.10204077 L33.0569113,1.28571423 Z M35.8373991,2.57142845 L36.3008137,2.29591826 C36.4037953,2.23469347 36.5582653,2.20408153 36.7642284,2.20408153 C36.9701914,2.32653112 37.4850914,2.38775499 38.3089438,2.38775499 C38.5149069,2.26530541 38.6693769,2.26530541 38.7723584,2.38775499 C38.8753399,2.51020458 39.0298099,2.57142845 39.235773,2.57142845 C39.4417361,2.44897887 39.4932261,2.35714306 39.3902446,2.29591826 C39.287263,2.23469347 39.235773,2.14285766 39.235773,2.02040807 L38.6178869,2.02040807 C38.6178869,1.89795849 38.5663969,1.80612267 38.4634153,1.74489788 C38.3604338,1.68367309 38.2059638,1.71428502 38.0000007,1.83673461 C37.7940376,1.83673461 37.6395676,1.92857042 37.5365861,2.1122448 C37.4336045,2.29591918 37.1761545,2.26530724 36.7642284,2.02040807 C37.3821176,1.89795849 37.3306276,1.83673461 36.6097568,1.83673461 L33.520326,1.83673461 C32.5934921,1.83673461 32.1300821,1.95918236 32.1300821,2.20408153 L33.9837406,2.38775499 C34.1897037,2.38775499 34.4986437,2.35714306 34.9105698,2.29591826 C35.322496,2.23469347 35.631436,2.32652928 35.8373991,2.57142845 Z M36.4552853,2.75510192 L36.4552853,2.57142845 C36.6612484,2.69387804 36.6612484,2.75510192 36.4552853,2.75510192 Z M33.9837406,0.918367305 C33.5718144,0.918367305 33.4688344,0.857143431 33.6747975,0.734693844 C33.8807606,0.734693844 33.9837406,0.795917719 33.9837406,0.918367305 Z M35.8373991,0.551020383 L36.1463422,0.551020383 L35.8373991,0.734693844 L35.8373991,0.551020383 Z M36.4552853,0.734693844 C36.2493222,0.734693844 36.1463422,0.704081907 36.1463422,0.642857114 C36.1463422,0.581632321 36.2493222,0.551020383 36.4552853,0.551020383 L36.4552853,0.734693844 Z M37.6910576,0.734693844 C37.4850945,0.734693844 37.3821145,0.704081907 37.3821145,0.642857114 C37.3821145,0.581632321 37.4850945,0.551020383 37.6910576,0.551020383 L37.6910576,0.734693844 Z M37.0731714,0 L38.3089438,0 C38.1029807,0.367348759 37.6910607,0.367348759 37.0731714,0 Z M40.1626023,1.28571423 L40.4715454,1.46938769 C40.2655823,1.46938769 40.1626023,1.40816381 40.1626023,1.28571423 Z M38.9268299,0.183673461 C38.9268299,0.0612238748 39.1327899,0 39.5447161,0 C39.5447161,0.122449586 39.4932261,0.214285398 39.3902446,0.275510192 C39.287263,0.336734985 39.132793,0.306123047 38.9268299,0.183673461 Z M40.4715454,1.28571423 C40.6775084,1.40816381 40.9864484,1.34693994 41.3983746,1.10204077 L41.0894315,0.918367305 C41.0894315,0.795917719 40.9864515,0.704081907 40.7804884,0.642857114 C40.5745254,0.581632321 40.3685654,0.612244258 40.1626023,0.734693844 C40.3685654,0.734693844 40.6260154,0.795917719 40.93496,0.918367305 C41.2439046,1.04081689 41.0894346,1.16326464 40.4715454,1.28571423 Z M39.8536592,0.183673461 C40.0596223,0.0612238748 40.1626023,0.0612238748 40.1626023,0.183673461 L39.8536592,0.183673461 Z M42.3252039,1.10204077 C41.9132777,1.10204077 41.7073177,1.04081689 41.7073177,0.918367305 C42.1192439,0.918367305 42.3252039,0.97959118 42.3252039,1.10204077 Z M43.5609762,1.65306115 L43.8699193,1.83673461 C43.6639562,1.83673461 43.5609762,1.77551074 43.5609762,1.65306115 Z M46.9593501,1.83673461 C47.1653132,1.9591842 47.2682932,1.9591842 47.2682932,1.83673461 L47.2682932,1.65306115 L47.5772363,1.28571423 C47.3712732,1.16326464 47.0623332,1.16326464 46.650407,1.28571423 C46.2384809,1.40816381 46.3414609,1.46938769 46.9593501,1.46938769 L46.9593501,1.83673461 Z M48.1951225,1.83673461 L49.4308948,1.46938769 C49.2249317,1.46938769 49.1219517,1.43877575 49.1219517,1.37755096 L49.1219517,1.28571423 C48.9159886,1.16326464 48.7100286,1.19387658 48.5040655,1.37755096 C48.2981025,1.56122534 48.1951225,1.71428502 48.1951225,1.83673461 Z M46.9593501,0.367346922 C46.753387,0.367346922 46.650407,0.306123047 46.650407,0.183673461 C47.0623332,0.183673461 47.1653132,0.244897336 46.9593501,0.367346922 Z M47.1138217,1.10204077 L47.2682932,1.10204077 C48.7100348,1.10204077 49.3279148,1.04081689 49.1219517,0.918367305 C48.7100255,1.04081689 48.2981055,1.04081689 47.8861794,0.918367305 C47.4742532,0.795917719 47.1653132,0.795917719 46.9593501,0.918367305 C47.1653132,0.918367305 47.2682932,0.948979243 47.2682932,1.01020404 L47.2682932,1.10204077 L47.1138217,1.10204077 Z M48.1951225,0.367346922 C48.1951225,0.244897336 48.2981025,0.183673461 48.5040655,0.183673461 C48.7100286,0.183673461 48.8130086,0.244897336 48.8130086,0.367346922 L48.1951225,0.367346922 Z M50.048781,1.46938769 C50.4607071,1.46938769 50.6151771,1.40816381 50.5121956,1.28571423 L50.357724,1.10204077 C50.9756133,1.10204077 51.2845533,1.16326464 51.2845533,1.28571423 L51.4390248,1.28571423 C51.5420064,1.28571423 51.4905164,1.22449035 51.2845533,1.10204077 C51.4905164,0.97959118 51.2845564,0.918367305 50.6666671,0.918367305 L50.357724,0.918367305 C49.9457979,0.918367305 49.6883479,0.97959118 49.5853663,1.10204077 C49.4823848,1.22449035 49.7398348,1.28571423 50.357724,1.28571423 L50.2032525,1.28571423 C50.100271,1.28571423 50.048781,1.3469381 50.048781,1.46938769 Z M51.9024395,1.83673461 C51.9024395,1.9591842 51.9539295,1.98979613 52.056911,1.92857134 L52.2113825,1.83673461 L51.9024395,1.83673461 Z M49.1219517,0.183673461 C49.3279148,0.183673461 49.5853648,0.214285398 49.8943094,0.275510192 C50.203254,0.336734985 50.048784,0.428570797 49.4308948,0.551020383 L49.1219517,0.183673461 Z M52.5203256,1.10204077 C52.1083995,1.10204077 51.7994595,1.04081689 51.5934964,0.918367305 C52.0054225,0.918367305 52.3143625,0.97959118 52.5203256,1.10204077 Z M66.1545682,2.06548263 L65.8048782,2.20408153 C65.5989151,2.20408153 65.2899752,2.26530541 64.878049,2.38775499 C64.4661228,2.51020458 64.4661228,2.38775683 64.878049,2.02040807 L64.878049,1.83673461 L63.9512197,2.02040807 C63.5392936,2.26530724 63.1273736,2.38775499 62.7154474,2.38775499 C62.3035212,2.38775499 61.9945812,2.41836693 61.7886181,2.47959172 C61.5826551,2.54081652 61.3766951,2.57142845 61.170732,2.57142845 L59.3170735,2.57142845 C59.3170735,2.44897887 59.7289935,2.35714306 60.5528458,2.29591826 C61.3766982,2.23469347 61.7886181,2.14285766 61.7886181,2.02040807 C62.2005443,1.7755089 62.3035243,1.59183727 62.0975612,1.46938769 C61.8915981,1.3469381 61.7886181,1.3469381 61.7886181,1.46938769 C61.7886181,1.58927353 61.6899052,1.65047061 61.4924765,1.65298063 C61.6981685,1.65702748 61.7886181,1.6875187 61.7886181,1.74489788 L61.7886181,1.83673461 C61.7886181,2.08163378 61.5826581,2.08163378 61.170732,1.83673461 L60.2439027,2.20408153 C60.2439027,2.08163195 60.0379427,2.02040807 59.6260166,2.02040807 C59.6260166,1.89795849 59.7289966,1.86734655 59.9349596,1.92857134 C60.1409227,1.98979613 60.2439027,1.9591842 60.2439027,1.83673461 C60.2439027,1.71428502 60.1924127,1.65306115 60.0894312,1.65306115 C59.9864496,1.65306115 60.1409196,1.5306134 60.5528458,1.28571423 L58.6991873,1.28571423 C58.9051504,1.40816381 59.1111104,1.46938769 59.3170735,1.46938769 C59.3170735,1.71428686 59.0596235,1.80612267 58.5447158,1.74489788 C58.029808,1.68367309 57.978318,1.5306134 58.3902442,1.28571423 C58.1842811,1.28571423 57.9268311,1.25510229 57.6178865,1.1938775 C57.3089419,1.1326527 57.0514919,1.16326464 56.8455288,1.28571423 C56.8455288,1.16326464 56.7940388,1.10204077 56.6910573,1.10204077 L56.3821142,1.10204077 C56.2791326,1.10204077 56.2276426,1.16326464 56.2276426,1.28571423 L56.2276426,1.46938769 L55.6097565,1.46938769 L54.3739841,1.83673461 L53.4471549,1.65306115 C53.2411918,1.77551074 53.2926818,1.86734655 53.6016264,1.92857134 C53.910571,1.98979613 54.168021,2.08163195 54.3739841,2.20408153 C54.168021,2.32653112 53.8590811,2.38775499 53.4471549,2.38775499 C53.0352287,2.38775499 52.7262887,2.32653112 52.5203256,2.20408153 C52.7262887,2.20408153 52.8807587,2.11224572 52.9837403,1.92857134 C53.0867218,1.74489696 53.0352318,1.59183727 52.8292687,1.46938769 C52.6233056,1.46938769 52.4688356,1.49999963 52.3658541,1.56122442 C52.2628725,1.62244921 52.3143625,1.71428502 52.5203256,1.83673461 L52.2113825,1.83673461 L52.2113825,2.20408153 C51.7994564,2.20408153 51.5934964,2.08163378 51.5934964,1.83673461 C51.3875333,1.9591842 51.2330633,1.98979613 51.1300818,1.92857134 C51.0271002,1.86734655 50.8726302,1.83673461 50.6666671,1.83673461 C50.460704,1.83673461 50.357724,1.95918236 50.357724,2.20408153 L49.7398379,2.20408153 C49.1219486,2.32653112 48.4525786,2.35714306 47.7317078,2.29591826 C47.010837,2.23469347 46.547427,2.20408153 46.341464,2.20408153 C45.7235747,2.08163195 45.2086747,2.05102001 44.7967485,2.1122448 C44.3848224,2.1734696 43.9729024,2.20408153 43.5609762,2.20408153 C43.14905,1.95918236 42.84011,1.83673461 42.6341469,1.83673461 C42.6341469,1.9591842 42.5826569,2.05102001 42.4796754,2.1122448 L42.3252039,2.20408153 L40.4715454,2.20408153 C40.4715454,2.32653112 41.1924053,2.38775499 42.6341469,2.38775499 C42.84011,2.26530541 42.99458,2.23469347 43.0975616,2.29591826 C43.2005431,2.35714306 43.2520331,2.44897887 43.2520331,2.57142845 C43.6639593,2.57142845 43.8699193,2.51020458 43.8699193,2.38775499 C44.0758824,2.38775499 44.6422724,2.41836693 45.5691062,2.47959172 C46.4959401,2.54081652 47.0623301,2.51020458 47.2682932,2.38775499 C47.4742563,2.63265417 47.9891563,2.72448998 48.8130086,2.66326519 L50.048781,2.57142845 C51.6964856,2.57142845 52.6233056,2.63265233 52.8292687,2.75510192 C53.2411949,2.51020274 53.5501349,2.51020274 53.756098,2.75510192 C53.962061,2.63265233 54.322491,2.60204039 54.8373988,2.66326519 C55.3523065,2.72448998 55.7127365,2.75510192 55.9186995,2.75510192 C57.3604411,2.75510192 58.4932211,2.81632579 59.3170735,2.93877538 L63.6422766,2.93877538 C63.8482397,3.06122496 64.0541997,3.0918369 64.2601628,3.03061211 C64.4661259,2.96938731 64.6720859,2.93877538 64.878049,2.93877538 C65.2899752,3.18367455 65.5989151,3.3061223 65.8048782,3.3061223 C66.0108413,3.3061223 66.1653113,3.27551036 66.2682929,3.21428557 C66.3712744,3.15306078 66.5257444,3.12244884 66.7317075,3.12244884 L67.6585367,3.3061223 L68.8943091,3.3061223 C69.1002722,3.42857189 69.3577222,3.42857189 69.6666668,3.3061223 C69.9756114,3.18367271 70.1300814,3.06122496 70.1300814,2.93877538 C69.9241183,2.6938762 69.6666683,2.60204039 69.3577237,2.66326519 L68.8943091,2.75510192 C68.4823829,2.63265233 68.3794029,2.57142845 68.585366,2.57142845 C68.585366,2.32652928 68.482386,2.20408153 68.2764229,2.20408153 L67.6585367,2.20408153 L67.0406506,2.29591826 C66.6550479,2.35323058 66.3596896,2.27641945 66.1545682,2.06548263 Z M61.4924765,1.65298063 C61.4882545,1.65303431 61.4839873,1.65306115 61.4796751,1.65306115 C61.4926119,1.65306115 61.5051424,1.65318192 61.5172666,1.65342347 L61.4924765,1.65298063 Z M52.5203256,0.551020383 C52.7262887,0.428570797 52.8292687,0.39795886 52.8292687,0.459183653 L52.8292687,0.551020383 L52.5203256,0.551020383 Z M56.5365857,1.83673461 C56.5365857,1.71428502 56.6395657,1.65306115 56.8455288,1.65306115 C56.8455288,1.89796032 56.7425488,1.9591842 56.5365857,1.83673461 Z M55.3008134,0.367346922 C55.0948503,0.489796508 54.8888903,0.489796508 54.6829272,0.367346922 L55.3008134,0.367346922 Z M56.8455288,1.65306115 C56.8455288,1.53061156 57.1544688,1.46938769 57.7723581,1.46938769 C57.7723581,1.71428686 57.4634181,1.77551074 56.8455288,1.65306115 Z M57.463415,0.551020383 C57.6693781,0.428570797 57.8238481,0.39795886 57.9268296,0.459183653 C58.0298111,0.520408446 58.1842811,0.551020383 58.3902442,0.551020383 L57.463415,0.551020383 Z M60.8617889,1.65306115 L60.5528458,1.83673461 C60.5528458,1.71428502 60.6558258,1.65306115 60.8617889,1.65306115 Z M60.2439027,0.734693844 L60.0894312,0.734693844 C59.9864496,0.734693844 59.9349596,0.673469969 59.9349596,0.551020383 C60.3468858,0.551020383 60.4498658,0.612244258 60.2439027,0.734693844 Z M63.6422766,2.75510192 C63.6422766,2.63265233 63.6937666,2.57142845 63.7967482,2.57142845 L63.9512197,2.57142845 C64.1571828,2.57142845 64.2601628,2.63265233 64.2601628,2.75510192 C64.0541997,2.8775515 63.8482397,2.8775515 63.6422766,2.75510192 Z M64.5691059,1.46938769 C64.5691059,1.59183727 64.6205959,1.65306115 64.7235774,1.65306115 C64.826559,1.65306115 64.878049,1.59183727 64.878049,1.46938769 L64.5691059,1.46938769 Z M67.3495937,1.83673461 C67.1436306,1.71428502 66.8861806,1.65306115 66.5772359,1.65306115 C66.2682913,1.65306115 66.1138213,1.71428502 66.1138213,1.83673461 L67.3495937,1.83673461 Z M73.2195122,3.67346922 C73.2195122,3.79591881 73.3224922,3.82653074 73.5284553,3.76530595 C73.7344184,3.70408116 73.8373984,3.61224535 73.8373984,3.48979576 L73.8373984,3.3061223 C73.8373984,3.3061223 73.7859084,3.3061223 73.6829269,3.3061223 C73.5799453,3.3061223 73.5284553,3.36734617 73.5284553,3.48979576 C73.3224922,3.36734617 73.1165322,3.36734617 72.9105692,3.48979576 C72.7046061,3.61224535 72.8075861,3.67346922 73.2195122,3.67346922 Z" id="—"/>
                </g>
            </g>
        </g>
    </g>
</svg>
