<?xml version="1.0" encoding="UTF-8"?>
<svg width="40px" height="40px" viewBox="0 0 40 40" version="1.1" xmlns="http://www.w3.org/2000/svg" xmlns:xlink="http://www.w3.org/1999/xlink">
    <!-- Generator: Sketch 50.2 (55047) - http://www.bohemiancoding.com/sketch -->
    <title>selection</title>
    <desc>Created with Sketch.</desc>
    <defs></defs>
    <g id="Desktop" stroke="none" stroke-width="1" fill="none" fill-rule="evenodd">
        <g id="All-Categories" transform="translate(-491.000000, -136.000000)" fill="#FFFFFF" fill-rule="nonzero">
            <g id="selection" transform="translate(491.000000, 136.000000)">
                <path d="M8.35714286,9 L0.642857143,9 C0.288,9 0,8.712 0,8.35714286 L0,0.642857143 C0,0.288 0.288,0 0.642857143,0 L8.35714286,0 C8.712,0 9,0.288 9,0.642857143 L9,8.35714286 C9,8.712 8.712,9 8.35714286,9 Z" id="Shape"></path>
                <path d="M24.3571429,9 L16.6428571,9 C16.288,9 16,8.712 16,8.35714286 L16,0.642857143 C16,0.288 16.288,0 16.6428571,0 L24.3571429,0 C24.712,0 25,0.288 25,0.642857143 L25,8.35714286 C25,8.712 24.712,9 24.3571429,9 Z" id="Shape"></path>
                <path d="M24.3571429,25 L16.6428571,25 C16.288,25 16,24.712 16,24.3571429 L16,16.6428571 C16,16.288 16.288,16 16.6428571,16 L24.3571429,16 C24.712,16 25,16.288 25,16.6428571 L25,24.3571429 C25,24.712 24.712,25 24.3571429,25 Z" id="Shape"></path>
                <path d="M39.3,24 L33.7,24 C33.3136,24 33,23.6864 33,23.3 L33,17.7 C33,17.3136 33.3136,17 33.7,17 L39.3,17 C39.6864,17 40,17.3136 40,17.7 L40,23.3 C40,23.6864 39.6864,24 39.3,24 Z" id="Shape"></path>
                <path d="M39.3,40 L33.7,40 C33.3136,40 33,39.6864 33,39.3 L33,33.7 C33,33.3136 33.3136,33 33.7,33 L39.3,33 C39.6864,33 40,33.3136 40,33.7 L40,39.3 C40,39.6864 39.6864,40 39.3,40 Z" id="Shape"></path>
                <path d="M23.3,40 L17.7,40 C17.3136,40 17,39.6864 17,39.3 L17,33.7 C17,33.3136 17.3136,33 17.7,33 L23.3,33 C23.6864,33 24,33.3136 24,33.7 L24,39.3 C24,39.6864 23.6864,40 23.3,40 Z" id="Shape"></path>
                <path d="M39.3571429,9 L31.6428571,9 C31.288,9 31,8.712 31,8.35714286 L31,0.642857143 C31,0.288 31.288,0 31.6428571,0 L39.3571429,0 C39.712,0 40,0.288 40,0.642857143 L40,8.35714286 C40,8.712 39.712,9 39.3571429,9 Z" id="Shape"></path>
                <path d="M8.35714286,25 L0.642857143,25 C0.288,25 0,24.712 0,24.3571429 L0,16.6428571 C0,16.288 0.288,16 0.642857143,16 L8.35714286,16 C8.712,16 9,16.288 9,16.6428571 L9,24.3571429 C9,24.712 8.712,25 8.35714286,25 Z" id="Shape"></path>
                <path d="M8.35714286,40 L0.642857143,40 C0.288,40 0,39.712 0,39.3571429 L0,31.6428571 C0,31.288 0.288,31 0.642857143,31 L8.35714286,31 C8.712,31 9,31.288 9,31.6428571 L9,39.3571429 C9,39.712 8.712,40 8.35714286,40 Z" id="Shape"></path>
            </g>
        </g>
    </g>
</svg>