<?xml version="1.0" encoding="UTF-8"?>
<svg width="48px" height="41px" viewBox="0 0 48 41" version="1.1" xmlns="http://www.w3.org/2000/svg" xmlns:xlink="http://www.w3.org/1999/xlink">
    <!-- Generator: Sketch 50.2 (55047) - http://www.bohemiancoding.com/sketch -->
    <title>group</title>
    <desc>Created with Sketch.</desc>
    <defs></defs>
    <g id="Desktop" stroke="none" stroke-width="1" fill="none" fill-rule="evenodd">
        <g id="All-Groups" transform="translate(-539.000000, -133.000000)" fill-rule="nonzero" stroke="#FFFFFF" stroke-width="3">
            <g id="group" transform="translate(541.000000, 135.000000)">
                <path d="M22,7.84615385 C22,3.51246154 25.5813333,0 30,0 C34.4186667,0 38,3.51246154 38,7.84615385 C38,12.1798462 34.4186667,17 30,17 C25.5813333,17 22,12.1798462 22,7.84615385 Z" id="Shape"></path>
                <path d="M4,18.8181818 C4,15.0531818 6.9107,12 10.5,12 C14.0893,12 17,15.0531818 17,18.8181818 C17,22.5831818 14.0893,27 10.5,27 C6.9107,27 4,22.5831818 4,18.8181818 Z" id="Shape"></path>
                <path d="M40.8798136,22.159 C38.574631,21.1167692 35.0789036,20 30.6829431,20 C28.0155366,20 25.6850516,20.4132308 23.7447564,20.9703077 C23.2014205,23.3123846 21.855066,25.5576923 20,27.106 C21.4515592,27.4133077 22.7020309,27.8003846 23.674176,28.1547692 C26.2723338,29.1054615 28.0195317,31.5704615 28.0195317,34.2878462 L28.0195317,37 L44,37 L44,26.9216154 C44,24.8685385 42.7788259,23.0168462 40.8798136,22.159 Z" id="Shape"></path>
                <path d="M22,34.2346667 C22,32.5573333 20.92475,31.0653333 19.303625,30.48 C17.331875,29.768 14.414125,29 11,29 C7.585875,29 4.668125,29.768 2.696375,30.48 C1.07525,31.0653333 0,32.5573333 0,34.2346667 L0,37 L22,37 L22,34.2346667 Z" id="Shape"></path>
            </g>
        </g>
    </g>
</svg>